<svg id="Capa_1" enable-background="new 0 0 512 512" height="512" viewBox="0 0 512 512" width="512" xmlns="http://www.w3.org/2000/svg"><path d="m460.78 345.496h-409.56c-11.046 0-20-8.954-20-20v-305.496c0-11.046 8.954-20 20-20h409.56c11.046 0 20 8.954 20 20v305.496c0 11.046-8.954 20-20 20z" fill="#e4f6ff"/><path d="m459.967 0h-27.057c11.495 0 20.813 9.318 20.813 20.813v303.87c0 11.495-9.318 20.813-20.813 20.813h27.057c11.495 0 20.813-9.318 20.813-20.813v-303.87c0-11.495-9.318-20.813-20.813-20.813z" fill="#d3effb"/><path d="m480.78 62.439h-449.56v-42.439c0-11.046 8.954-20 20-20h409.56c11.046 0 20 8.954 20 20z" fill="#90d8f9"/><circle cx="73.886" cy="31.22" fill="#e27a66" r="10.407"/><circle cx="116.553" cy="31.22" fill="#f4dd45" r="10.407"/><circle cx="159.22" cy="31.22" fill="#aad540" r="10.407"/><path d="m459.967 0h-27.057c11.495 0 20.813 9.318 20.813 20.813v41.626h27.057v-41.626c0-11.495-9.318-20.813-20.813-20.813z" fill="#75cef9"/><circle cx="256" cy="345.496" fill="#665e66" r="166.504"/><path d="m375.18 229.238c22.462 28.379 35.877 64.246 35.877 103.25 0 91.958-74.546 166.504-166.504 166.504-46.722 0-88.941-19.252-119.18-50.246 30.496 38.53 77.673 63.254 130.627 63.254 91.958 0 166.504-74.547 166.504-166.504 0-45.236-18.047-86.25-47.324-116.258z" fill="#544f57"/><path d="m256 480.78c-74.596 0-135.285-60.688-135.285-135.285s60.689-135.284 135.285-135.284 135.285 60.688 135.285 135.285-60.689 135.284-135.285 135.284z" fill="#d3ced5"/><path d="m256 465.171c-65.989 0-119.675-53.686-119.675-119.675s53.686-119.675 119.675-119.675 119.675 53.686 119.675 119.675-53.686 119.675-119.675 119.675z" fill="#e2dfe2"/><path d="m339.252 353.222c-4.267 0-7.726-3.459-7.726-7.726 0-41.645-33.881-75.526-75.526-75.526s-75.526 33.881-75.526 75.526c0 4.268-3.459 7.726-7.726 7.726s-7.726-3.459-7.726-7.726c0-50.166 40.813-90.979 90.978-90.979s90.978 40.813 90.978 90.979c0 4.268-3.459 7.726-7.726 7.726z" fill="#e27a66"/><path d="m299.727 301.768c-3.017-3.016-7.909-3.016-10.927 0l-22.696 22.696c-3.059-1.476-6.487-2.303-10.105-2.303-12.868 0-23.336 10.469-23.336 23.336s10.468 23.336 23.336 23.336 23.336-10.469 23.336-23.336c0-3.618-.828-7.047-2.304-10.106l22.695-22.695c3.019-3.019 3.019-7.91.001-10.928z" fill="#e27a66"/><g fill="#544f57"><path d="m263.726 210.425v18.523c0 4.265-3.461 7.726-7.726 7.726s-7.726-3.462-7.726-7.726v-18.523c2.555-.144 5.13-.216 7.726-.216s5.172.072 7.726.216z"/><path d="m217.059 215.916 6.336 17.41c1.463 4.018-.608 8.447-4.615 9.91-.876.309-1.762.464-2.637.464-3.163 0-6.119-1.947-7.263-5.089l-6.336-17.389z"/><path d="m186.051 262.13c-1.453 1.216-3.214 1.813-4.965 1.813-2.205 0-4.399-.948-5.924-2.761l-11.857-14.134c3.75-3.534 7.695-6.851 11.826-9.941l11.868 14.134c2.74 3.276 2.317 8.148-.948 10.889z"/><path d="m161.749 291.078c-1.422 2.483-4.028 3.873-6.696 3.873-1.308 0-2.637-.34-3.853-1.04l-16.019-9.241c2.328-4.615 4.924-9.076 7.747-13.372l15.999 9.23c3.697 2.133 4.965 6.862 2.822 10.55z"/><path d="m124.322 314.422v.01l18.234 3.214c4.203.742 7.016 4.749 6.274 8.952-.659 3.75-3.925 6.387-7.603 6.387-.443 0-.896-.041-1.35-.124l-18.234-3.204z"/><path d="m142.556 373.348-18.234 3.214c-1.174-4.976-2.081-10.055-2.678-15.226l18.234-3.214c4.203-.742 8.211 2.071 8.952 6.274.742 4.203-2.07 8.21-6.274 8.952z"/><path d="m309.456 221.221-6.336 17.39c-1.143 3.142-4.1 5.089-7.263 5.089-.876 0-1.762-.155-2.637-.464-4.007-1.463-6.078-5.892-4.615-9.91l6.336-17.41c4.965 1.504 9.807 3.276 14.515 5.305z"/><path d="m348.696 247.048-11.857 14.134c-1.525 1.813-3.719 2.761-5.924 2.761-1.751 0-3.513-.598-4.965-1.813-3.266-2.74-3.688-7.613-.948-10.889l11.868-14.134c4.13 3.09 8.076 6.407 11.826 9.941z"/><path d="m376.82 284.67-16.019 9.241c-1.216.7-2.544 1.04-3.853 1.04-2.668 0-5.275-1.391-6.696-3.873-2.143-3.688-.876-8.417 2.823-10.549l15.999-9.23c2.821 4.295 5.417 8.756 7.746 13.371z"/><path d="m390.356 329.658-18.234 3.204c-.453.082-.906.124-1.35.124-3.678 0-6.943-2.637-7.603-6.387-.742-4.203 2.071-8.211 6.274-8.952l18.234-3.214c1.185 4.975 2.082 10.053 2.679 15.225z"/><path d="m390.356 361.336c-.597 5.172-1.504 10.25-2.678 15.226l-18.234-3.214c-4.203-.742-7.016-4.749-6.274-8.952s4.759-7.016 8.952-6.274z"/></g><path d="m287.219 387.72h-62.439c-9.998 0-18.133 8.135-18.133 18.134v16.65c0 9.998 8.135 18.133 18.133 18.133h62.439c9.998 0 18.133-8.135 18.133-18.133v-16.65c.001-9.999-8.134-18.134-18.133-18.134z" fill="#aad540"/><path d="m155.057 105.547h-90.537c-4.267 0-7.726-3.459-7.726-7.726 0-4.268 3.459-7.726 7.726-7.726h90.537c4.267 0 7.726 3.459 7.726 7.726 0 4.268-3.459 7.726-7.726 7.726z" fill="#665e66"/><path d="m134.244 136.767h-69.724c-4.267 0-7.726-3.459-7.726-7.726 0-4.268 3.459-7.726 7.726-7.726h69.724c4.267 0 7.726 3.459 7.726 7.726s-3.459 7.726-7.726 7.726z" fill="#665e66"/><path d="m113.431 169.027h-48.911c-4.267 0-7.726-3.459-7.726-7.726 0-4.268 3.459-7.726 7.726-7.726h48.911c4.267 0 7.726 3.459 7.726 7.726s-3.459 7.726-7.726 7.726z" fill="#665e66"/><path d="m447.48 105.547h-90.537c-4.267 0-7.726-3.459-7.726-7.726 0-4.268 3.459-7.726 7.726-7.726h90.537c4.267 0 7.726 3.459 7.726 7.726 0 4.268-3.459 7.726-7.726 7.726z" fill="#665e66"/><path d="m447.48 136.767h-69.724c-4.267 0-7.726-3.459-7.726-7.726 0-4.268 3.459-7.726 7.726-7.726h69.724c4.267 0 7.726 3.459 7.726 7.726s-3.459 7.726-7.726 7.726z" fill="#665e66"/><path d="m301.268 105.547h-90.536c-4.267 0-7.726-3.459-7.726-7.726 0-4.268 3.459-7.726 7.726-7.726h90.536c4.267 0 7.726 3.459 7.726 7.726 0 4.268-3.459 7.726-7.726 7.726z" fill="#665e66"/><path d="m290.862 136.767h-69.723c-4.267 0-7.726-3.459-7.726-7.726 0-4.268 3.459-7.726 7.726-7.726h69.723c4.267 0 7.726 3.459 7.726 7.726s-3.459 7.726-7.726 7.726z" fill="#665e66"/><path d="m447.48 169.027h-48.911c-4.267 0-7.726-3.459-7.726-7.726 0-4.268 3.459-7.726 7.726-7.726h48.911c4.267 0 7.726 3.459 7.726 7.726s-3.459 7.726-7.726 7.726z" fill="#665e66"/></svg>