<svg height="512" viewBox="0 0 64 64" width="512" xmlns="http://www.w3.org/2000/svg"><g id="Socail_network" data-name="Socail network"><path d="m49 15a12.142 12.142 0 0 0 -1.5.1 15.979 15.979 0 0 0 -31 0 12.142 12.142 0 0 0 -1.5-.1 12 12 0 0 0 0 24h34a12 12 0 0 0 0-24z" fill="#2488ff"/><path d="m49 15a12.142 12.142 0 0 0 -1.5.1 15.992 15.992 0 0 0 -15.5-12.1c-.506 0-1.006.028-1.5.074a16 16 0 0 1 14 12.026 12.142 12.142 0 0 1 1.5-.1 12 12 0 0 1 0 24h3a12 12 0 0 0 0-24z" fill="#006df0"/><path d="m7 43a4 4 0 0 0 0 8h6v-8z" fill="#ed1c24"/><path d="m26 57v-7-6-5-2h-4v20z" fill="#808285"/><path d="m13 51 9 6v-20l-3 2-6 4z" fill="#e6e7e8"/><path d="m20 38.333v17.334l2 1.333v-20z" fill="#d1d3d4"/><path d="m9 59a2 2 0 0 0 4 0v-8h-4z" fill="#58595b"/><path d="m29 47a3 3 0 0 0 -3-3v6a3 3 0 0 0 3-3z" fill="#ed1c24"/><path d="m27 16h-6v14h6v-2-10z" fill="#00479b"/><path d="m43 18.5a1.5 1.5 0 0 0 -1.5-1.5h-4.5v-3a2 2 0 0 0 -2-2h-2v2a4 4 0 0 1 -4 4h-2v10h2l2 1h10.5a1.5 1.5 0 0 0 0-3 1.5 1.5 0 0 0 0-3 1.5 1.5 0 0 0 0-3 1.5 1.5 0 0 0 1.5-1.5z" fill="#ffbcab"/><path d="m53 33h-16a4 4 0 0 0 -4 4v10a4 4 0 0 0 4 4h2v6l6-6h8a4 4 0 0 0 4-4v-10a4 4 0 0 0 -4-4z" fill="#ffcd00"/><path d="m53 33h-16a4 4 0 0 0 -4 4v10a4 4 0 0 0 4 4h2v6l6-6h8a4 4 0 0 0 4-4v-10a4 4 0 0 0 -4-4z" fill="#ffcd00"/><path d="m39 55v2l6-6h-2z" fill="#ebbf00"/><path d="m53 33h-2a4 4 0 0 1 4 4v10a4 4 0 0 1 -4 4h2a4 4 0 0 0 4-4v-10a4 4 0 0 0 -4-4z" fill="#ebbf00"/><g fill="#ff5023"><path d="m38 37h-1a1 1 0 0 0 0 2h1a1 1 0 0 0 0-2z"/><path d="m38 41h-1a1 1 0 0 0 0 2h1a1 1 0 0 0 0-2z"/><path d="m38 45h-1a1 1 0 0 0 0 2h1a1 1 0 0 0 0-2z"/><path d="m53 37h-11a1 1 0 0 0 0 2h11a1 1 0 0 0 0-2z"/><path d="m53 41h-11a1 1 0 0 0 0 2h11a1 1 0 0 0 0-2z"/><path d="m53 45h-11a1 1 0 0 0 0 2h11a1 1 0 0 0 0-2z"/></g></g></svg>