<svg height="512pt" viewBox="0 0 512 512" width="512pt" xmlns="http://www.w3.org/2000/svg"><path d="m35.308594 0h441.382812c19.5 0 35.308594 15.808594 35.308594 35.308594v441.382812c0 19.5-15.808594 35.308594-35.308594 35.308594h-441.382812c-19.5 0-35.308594-15.808594-35.308594-35.308594v-441.382812c0-19.5 15.808594-35.308594 35.308594-35.308594zm0 0" fill="#2c3e50"/><path d="m512 35.308594v35.3125h-512v-35.3125c0-19.5 15.808594-35.308594 35.308594-35.308594h441.382812c19.5 0 35.308594 15.808594 35.308594 35.308594zm0 0" fill="#285680"/><path d="m35.308594 44.136719c-2.335938-.03125-4.574219-.945313-6.265625-2.558594-.777344-.859375-1.40625-1.84375-1.855469-2.914063-.449219-1.058593-.691406-2.199218-.703125-3.355468-.023437-3.585938 2.128906-6.828125 5.441406-8.203125s7.125-.609375 9.652344 1.9375c1.613281 1.691406 2.527344 3.929687 2.558594 6.265625-.011719 1.15625-.253907 2.296875-.703125 3.355468-.449219 1.070313-1.078125 2.054688-1.855469 2.914063-.441406.351563-.882813.707031-1.414063 1.058594-.449218.351562-.957031.621093-1.5.796875-.5.25-1.035156.429687-1.589843.527344-.582031.101562-1.171875.160156-1.765625.175781zm0 0" fill="#e64c3c"/><path d="m70.621094 44.136719c-1.152344-.011719-2.292969-.253907-3.355469-.703125-1.066406-.449219-2.054687-1.078125-2.914063-1.855469-3.414062-3.480469-3.414062-9.054687 0-12.535156.859376-.78125 1.84375-1.40625 2.914063-1.855469 1.609375-.703125 3.398437-.886719 5.121094-.527344.550781.09375 1.089843.273438 1.589843.527344.5625.195312 1.09375.460938 1.585938.796875.464844.324219.90625.679687 1.324219 1.058594 3.414062 3.480469 3.414062 9.054687 0 12.535156-.417969.378906-.859375.734375-1.324219 1.058594-.492188.335937-1.023438.601562-1.585938.796875-.503906.25-1.039062.429687-1.589843.527344-.582031.101562-1.175781.160156-1.765625.175781zm0 0" fill="#f0c419"/><path d="m105.929688 44.136719c-2.347657.023437-4.605469-.898438-6.265626-2.558594-1.660156-1.660156-2.585937-3.917969-2.5625-6.269531.035157-2.335938.949219-4.574219 2.5625-6.265625 2.136719-2.046875 5.128907-2.933594 8.03125-2.382813.554688.09375 1.089844.273438 1.589844.527344.5625.195312 1.097656.460938 1.589844.796875.460938.324219.902344.679687 1.324219 1.058594 1.609375 1.691406 2.523437 3.929687 2.558593 6.265625-.015624.59375-.074218 1.183594-.175781 1.765625-.097656.554687-.277343 1.089843-.53125 1.589843-.191406.5625-.457031 1.097657-.792969 1.589844-.324218.460938-.679687.90625-1.058593 1.324219-1.695313 1.609375-3.929688 2.523437-6.269531 2.558594zm0 0" fill="#24ae5f"/><path d="m344.277344 158.898438h-35.3125c-9.75 0-17.65625-7.90625-17.65625-17.65625v-8.828126h-35.308594c-4.875 0-8.828125-3.953124-8.828125-8.828124s3.953125-8.828126 8.828125-8.828126h35.308594c9.753906 0 17.65625 7.90625 17.65625 17.65625v8.828126h35.3125c4.875 0 8.824218 3.953124 8.824218 8.828124s-3.949218 8.828126-8.824218 8.828126zm0 0" fill="#ff5364"/><path d="m291.308594 388.414062h-35.308594c-4.875 0-8.828125-3.953124-8.828125-8.828124s3.953125-8.828126 8.828125-8.828126h35.308594v-220.6875c0-4.875 3.953125-8.828124 8.828125-8.828124s8.828125 3.953124 8.828125 8.828124v220.6875c0 9.75-7.902344 17.65625-17.65625 17.65625zm0 0" fill="#ff5364"/><path d="m256 123.585938v17.65625h-220.691406v-17.65625c.03125-9.738282 7.917968-17.625 17.65625-17.65625h185.378906c9.738281.03125 17.628906 7.917968 17.65625 17.65625zm0 0" fill="#4482c3"/><path d="m256 141.242188v158.894531c-.027344 9.738281-7.917969 17.628906-17.65625 17.65625h-185.378906c-9.738282-.027344-17.625-7.917969-17.65625-17.65625v-158.894531zm0 0" fill="#b0d3f0"/><g fill="#802d40"><path d="m70.621094 220.691406c-3.570313-.003906-6.789063-2.152344-8.152344-5.453125-1.367188-3.296875-.613281-7.09375 1.910156-9.617187l11.414063-11.414063-11.414063-11.414062c-3.34375-3.464844-3.296875-8.96875.109375-12.375 3.402344-3.40625 8.910157-3.453125 12.375-.105469l17.652344 17.652344c3.449219 3.449218 3.449219 9.035156 0 12.484375l-17.652344 17.652343c-1.65625 1.65625-3.902343 2.585938-6.242187 2.589844zm0 0"/><path d="m150.070312 203.035156h-26.484374c-4.875 0-8.828126-3.953125-8.828126-8.828125s3.953126-8.828125 8.828126-8.828125h26.484374c4.875 0 8.828126 3.953125 8.828126 8.828125s-3.953126 8.828125-8.828126 8.828125zm0 0"/><path d="m220.691406 203.035156h-35.3125c-4.875 0-8.828125-3.953125-8.828125-8.828125s3.953125-8.828125 8.828125-8.828125h35.3125c4.875 0 8.824219 3.953125 8.824219 8.828125s-3.949219 8.828125-8.824219 8.828125zm0 0"/><path d="m70.621094 291.308594c-3.570313 0-6.789063-2.148438-8.152344-5.449219-1.367188-3.296875-.613281-7.09375 1.910156-9.617187l11.414063-11.414063-11.414063-11.414063c-3.34375-3.464843-3.296875-8.96875.109375-12.375 3.402344-3.40625 8.910157-3.453124 12.375-.109374l17.652344 17.65625c3.449219 3.449218 3.449219 9.035156 0 12.484374l-17.652344 17.652344c-1.65625 1.65625-3.902343 2.585938-6.242187 2.585938zm0 0"/><path d="m150.070312 273.65625h-26.484374c-4.875 0-8.828126-3.953125-8.828126-8.828125s3.953126-8.828125 8.828126-8.828125h26.484374c4.875 0 8.828126 3.953125 8.828126 8.828125s-3.953126 8.828125-8.828126 8.828125zm0 0"/><path d="m220.691406 273.65625h-35.3125c-4.875 0-8.828125-3.953125-8.828125-8.828125s3.953125-8.828125 8.828125-8.828125h35.3125c4.875 0 8.824219 3.953125 8.824219 8.828125s-3.949219 8.828125-8.824219 8.828125zm0 0"/></g><path d="m256 379.585938v17.65625h-220.691406v-17.65625c.03125-9.738282 7.917968-17.625 17.65625-17.65625h185.378906c9.738281.03125 17.628906 7.917968 17.65625 17.65625zm0 0" fill="#4482c3"/><path d="m35.308594 397.242188h220.691406v114.757812h-220.691406zm0 0" fill="#b0d3f0"/><path d="m70.621094 476.691406c-3.570313-.003906-6.789063-2.152344-8.152344-5.453125-1.367188-3.296875-.613281-7.09375 1.910156-9.617187l11.414063-11.414063-11.414063-11.414062c-3.34375-3.464844-3.296875-8.96875.109375-12.375 3.402344-3.40625 8.910157-3.453125 12.375-.105469l17.652344 17.652344c3.449219 3.449218 3.449219 9.035156 0 12.484375l-17.652344 17.652343c-1.65625 1.65625-3.902343 2.585938-6.242187 2.589844zm0 0" fill="#802d40"/><path d="m150.070312 459.035156h-26.484374c-4.875 0-8.828126-3.953125-8.828126-8.828125s3.953126-8.828125 8.828126-8.828125h26.484374c4.875 0 8.828126 3.953125 8.828126 8.828125s-3.953126 8.828125-8.828126 8.828125zm0 0" fill="#802d40"/><path d="m220.691406 459.035156h-35.3125c-4.875 0-8.828125-3.953125-8.828125-8.828125s3.953125-8.828125 8.828125-8.828125h35.3125c4.875 0 8.824219 3.953125 8.824219 8.828125s-3.949219 8.828125-8.824219 8.828125zm0 0" fill="#802d40"/><path d="m512 132.414062v35.308594h-167.722656v-17.652344c.027344-9.738281 7.914062-17.628906 17.652344-17.65625zm0 0" fill="#4482c3"/><path d="m512 167.722656v176.554688h-150.070312c-9.738282-.03125-17.625-7.917969-17.652344-17.65625v-158.898438zm0 0" fill="#b0d3f0"/><path d="m379.585938 247.171875c-3.570313 0-6.789063-2.152344-8.152344-5.449219-1.367188-3.296875-.613282-7.09375 1.910156-9.617187l11.414062-11.414063-11.414062-11.414062c-3.34375-3.464844-3.296875-8.972656.109375-12.375 3.40625-3.40625 8.910156-3.453125 12.375-.109375l17.65625 17.65625c3.445313 3.445312 3.445313 9.035156 0 12.480469l-17.65625 17.65625c-1.65625 1.65625-3.902344 2.585937-6.242187 2.585937zm0 0" fill="#802d40"/><path d="m459.035156 229.515625h-26.484375c-4.875 0-8.828125-3.949219-8.828125-8.824219 0-4.878906 3.953125-8.828125 8.828125-8.828125h26.484375c4.875 0 8.828125 3.949219 8.828125 8.828125 0 4.875-3.953125 8.824219-8.828125 8.824219zm0 0" fill="#802d40"/><path d="m512 211.863281v17.652344h-17.65625c-4.875 0-8.828125-3.949219-8.828125-8.824219 0-4.878906 3.953125-8.828125 8.828125-8.828125zm0 0" fill="#802d40"/><path d="m379.585938 317.792969c-3.570313 0-6.789063-2.152344-8.152344-5.449219-1.367188-3.296875-.613282-7.09375 1.910156-9.621094l11.414062-11.414062-11.414062-11.414063c-3.34375-3.460937-3.296875-8.96875.109375-12.371093 3.40625-3.40625 8.910156-3.453126 12.375-.109376l17.65625 17.65625c3.445313 3.445313 3.445313 9.035157 0 12.480469l-17.65625 17.65625c-1.65625 1.65625-3.902344 2.585938-6.242187 2.585938zm0 0" fill="#802d40"/><path d="m459.035156 300.136719h-26.484375c-4.875 0-8.828125-3.949219-8.828125-8.828125 0-4.875 3.953125-8.824219 8.828125-8.824219h26.484375c4.875 0 8.828125 3.949219 8.828125 8.824219 0 4.878906-3.953125 8.828125-8.828125 8.828125zm0 0" fill="#802d40"/><path d="m512 282.484375v17.652344h-17.65625c-4.875 0-8.828125-3.949219-8.828125-8.828125 0-4.875 3.953125-8.824219 8.828125-8.824219zm0 0" fill="#802d40"/></svg>