<svg xmlns="http://www.w3.org/2000/svg" width="655.359" height="655.359" fill-rule="evenodd" clip-rule="evenodd" image-rendering="optimizeQuality" shape-rendering="geometricPrecision" text-rendering="geometricPrecision" viewBox="0 0 6.827 6.827"><path fill-rule="nonzero" d="M3.687 1.218a1.939 1.939 0 0 0-1.181.576c-.293.305-.47.708-.47 1.148 0 .478.21.912.55 1.226.342.316.815.511 1.337.511.481 0 .92-.165 1.253-.437.336-.274.565-.657.622-1.088a.08.08 0 0 1 .159.005 2.229 2.229 0 0 1-.655 1.851 2.674 2.674 0 0 1-1.889.772 2.657 2.657 0 0 1-1.806-.692 2.277 2.277 0 0 1-.74-1.907c.063-.64.391-1.176.86-1.55a2.732 2.732 0 0 1 1.695-.588c.088 0 .177.004.269.013a.08.08 0 0 1-.004.16z"/><path fill-rule="nonzero" d="m4.103 1.467.276.855.905-.001c0-.002.08.037.08.08a.08.08 0 0 1-.036.067l-.73.528.281.86a.08.08 0 0 1-.129.085l-.725-.53-.732.535a.08.08 0 0 1-.121-.094l.28-.856-.734-.53a.08.08 0 0 1 .054-.145l.899.001.278-.861a.08.08 0 0 1 .154.006z"/><path fill="none" d="M0 0h6.827v6.827H0z"/></svg>